<svg width="16" height="16" viewBox="0 0 16 16" fill="none" xmlns="http://www.w3.org/2000/svg">
<path d="M1.33333 3.33328H3.69667C3.77787 3.79681 4.01992 4.21686 4.38024 4.51954C4.74056 4.82223 5.19608 4.98817 5.66667 4.98817C6.13725 4.98817 6.59277 4.82223 6.95309 4.51954C7.31342 4.21686 7.55546 3.79681 7.63667 3.33328H14.6667C14.7551 3.33328 14.8399 3.29816 14.9024 3.23565C14.9649 3.17313 15 3.08835 15 2.99994C15 2.91154 14.9649 2.82675 14.9024 2.76424C14.8399 2.70173 14.7551 2.66661 14.6667 2.66661H7.63667C7.55546 2.20308 7.31342 1.78303 6.95309 1.48034C6.59277 1.17766 6.13725 1.01172 5.66667 1.01172C5.19608 1.01172 4.74056 1.17766 4.38024 1.48034C4.01992 1.78303 3.77787 2.20308 3.69667 2.66661H1.33333C1.24493 2.66661 1.16014 2.70173 1.09763 2.76424C1.03512 2.82675 1 2.91154 1 2.99994C1 3.08835 1.03512 3.17313 1.09763 3.23565C1.16014 3.29816 1.24493 3.33328 1.33333 3.33328ZM5.66667 1.66661C5.93038 1.66661 6.18816 1.74481 6.40743 1.89132C6.62669 2.03783 6.79759 2.24606 6.89851 2.4897C6.99942 2.73333 7.02583 3.00142 6.97438 3.26006C6.92293 3.51871 6.79595 3.75628 6.60948 3.94275C6.42301 4.12922 6.18543 4.25621 5.92679 4.30766C5.66815 4.3591 5.40006 4.3327 5.15642 4.23178C4.91279 4.13087 4.70455 3.95997 4.55804 3.7407C4.41153 3.52144 4.33333 3.26365 4.33333 2.99994C4.33333 2.64632 4.47381 2.30718 4.72386 2.05713C4.97391 1.80709 5.31305 1.66661 5.66667 1.66661ZM14.6667 7.66661H12.3033C12.2221 7.20308 11.9801 6.78303 11.6198 6.48034C11.2594 6.17766 10.8039 6.01172 10.3333 6.01172C9.86275 6.01172 9.40723 6.17766 9.04691 6.48034C8.68658 6.78303 8.44454 7.20308 8.36333 7.66661H1.33333C1.24493 7.66661 1.16014 7.70173 1.09763 7.76424C1.03512 7.82675 1 7.91154 1 7.99994C1 8.08835 1.03512 8.17313 1.09763 8.23565C1.16014 8.29816 1.24493 8.33328 1.33333 8.33328H8.36333C8.44454 8.79681 8.68658 9.21686 9.04691 9.51954C9.40723 9.82223 9.86275 9.98817 10.3333 9.98817C10.8039 9.98817 11.2594 9.82223 11.6198 9.51954C11.9801 9.21686 12.2221 8.79681 12.3033 8.33328H14.6667C14.7551 8.33328 14.8399 8.29816 14.9024 8.23565C14.9649 8.17313 15 8.08835 15 7.99994C15 7.91154 14.9649 7.82675 14.9024 7.76424C14.8399 7.70173 14.7551 7.66661 14.6667 7.66661ZM10.3333 9.33328C10.0696 9.33328 9.81184 9.25508 9.59257 9.10857C9.37331 8.96206 9.20241 8.75382 9.10149 8.51019C9.00058 8.26655 8.97417 7.99846 9.02562 7.73982C9.07707 7.48118 9.20405 7.2436 9.39052 7.05713C9.57699 6.87066 9.81457 6.74368 10.0732 6.69223C10.3319 6.64078 10.5999 6.66719 10.8436 6.7681C11.0872 6.86902 11.2955 7.03992 11.442 7.25918C11.5885 7.47845 11.6667 7.73624 11.6667 7.99994C11.6667 8.35357 11.5262 8.6927 11.2761 8.94275C11.0261 9.1928 10.687 9.33328 10.3333 9.33328ZM14.6667 12.6666H7.63667C7.55546 12.2031 7.31342 11.783 6.95309 11.4803C6.59277 11.1777 6.13725 11.0117 5.66667 11.0117C5.19608 11.0117 4.74056 11.1777 4.38024 11.4803C4.01992 11.783 3.77787 12.2031 3.69667 12.6666H1.33333C1.24493 12.6666 1.16014 12.7017 1.09763 12.7642C1.03512 12.8268 1 12.9115 1 12.9999C1 13.0884 1.03512 13.1731 1.09763 13.2356C1.16014 13.2982 1.24493 13.3333 1.33333 13.3333H3.69667C3.77787 13.7968 4.01992 14.2169 4.38024 14.5195C4.74056 14.8222 5.19608 14.9882 5.66667 14.9882C6.13725 14.9882 6.59277 14.8222 6.95309 14.5195C7.31342 14.2169 7.55546 13.7968 7.63667 13.3333H14.6667C14.7551 13.3333 14.8399 13.2982 14.9024 13.2356C14.9649 13.1731 15 13.0884 15 12.9999C15 12.9115 14.9649 12.8268 14.9024 12.7642C14.8399 12.7017 14.7551 12.6666 14.6667 12.6666ZM5.66667 14.3333C5.40296 14.3333 5.14517 14.2551 4.92591 14.1086C4.70664 13.9621 4.53574 13.7538 4.43483 13.5102C4.33391 13.2666 4.30751 12.9985 4.35895 12.7398C4.4104 12.4812 4.53739 12.2436 4.72386 12.0571C4.91033 11.8707 5.1479 11.7437 5.40655 11.6922C5.66519 11.6408 5.93328 11.6672 6.17691 11.7681C6.42055 11.869 6.62878 12.0399 6.77529 12.2592C6.9218 12.4784 7 12.7362 7 12.9999C7 13.3536 6.85952 13.6927 6.60948 13.9428C6.35943 14.1928 6.02029 14.3333 5.66667 14.3333Z" fill="#979797"/>
</svg>
