<?xml version="1.0" encoding="utf-8" standalone="no"?>
<!DOCTYPE svg PUBLIC "-//W3C//DTD SVG 1.1//EN" "http://www.w3.org/Graphics/SVG/1.1/DTD/svg11.dtd">

<svg width="456" height="456" viewBox="0 0 456 456" fill="none" xmlns="http://www.w3.org/2000/svg">
<g filter="url(#filter0_d_1097_5034)">
<circle cx="238" cy="228" r="193" fill="white"/>
</g>
<path d="M114.481 184.47V191.95H107.111V184.47H114.481ZM125.316 184.47V191.95H117.946V184.47H125.316ZM128.616 192.5H135.986V220H112.831C101.886 220 96.4964 216.315 96.4964 208.285C96.4964 204.875 97.4864 200.75 97.9264 198.44L105.131 199.815C104.691 202.07 103.866 205.535 103.866 208.34C103.866 212.135 105.406 213.4 112.831 213.4H128.616V192.5ZM160.358 213.4C161.238 213.4 161.458 214.665 161.458 216.7C161.458 218.735 161.238 220 160.358 220H144.793V181.5H152.163V213.4H160.358ZM180.821 213.4C181.701 213.4 181.921 214.665 181.921 216.7C181.921 218.735 181.701 220 180.821 220H160.361C159.481 220 159.261 218.735 159.261 216.7C159.261 214.665 159.481 213.4 160.361 213.4H166.906V192.5H174.276V213.4H180.821ZM161.461 230.78V223.3H168.831V230.78H161.461ZM172.296 230.78V223.3H179.666V230.78H172.296ZM203.705 181.005V188.485H196.335V181.005H203.705ZM218.005 213.4C218.885 213.4 219.105 214.665 219.105 216.7C219.105 218.735 218.885 220 218.005 220H180.825C179.945 220 179.725 218.735 179.725 216.7C179.725 214.665 179.945 213.4 180.825 213.4H186.71C186.105 211.475 185.885 209.11 185.885 206.25C185.885 196.79 188.525 192.5 198.15 192.5H211.46V213.4H218.005ZM193.255 206.25C193.255 213.125 193.805 213.4 198.15 213.4H204.09V199.1H198.15C193.805 199.1 193.255 199.375 193.255 206.25ZM248.188 171.71V178.53H241.478V171.71H248.188ZM243.073 181.005V188.485H235.703V181.005H243.073ZM246.538 188.485V181.005H253.908V188.485H246.538ZM271.013 213.4C271.893 213.4 272.113 214.665 272.113 216.7C272.113 218.735 271.893 220 271.013 220H250.003C247.968 220 245.988 219.395 244.173 218.24C242.413 219.45 240.103 220 237.133 220H217.993C217.113 220 216.893 218.735 216.893 216.7C216.893 214.665 217.113 213.4 217.993 213.4H225.308V195.25H232.678V213.4H237.133C240.433 213.4 241.148 212.52 241.148 206.25V195.25H248.518V206.25C248.518 208.67 248.298 210.705 247.858 212.465C248.793 213.235 249.343 213.4 250.003 213.4H257.098V204.765C257.098 203.335 256.493 198.44 255.668 193.6L262.928 192.5C263.588 196.46 264.468 202.565 264.468 204.765V213.4H271.013ZM279.475 181.005V188.485H272.105V181.005H279.475ZM290.31 181.005V188.485H282.94V181.005H290.31ZM291.465 213.4C292.345 213.4 292.565 214.665 292.565 216.7C292.565 218.735 292.345 220 291.465 220H271.005C270.125 220 269.905 218.735 269.905 216.7C269.905 214.665 270.125 213.4 271.005 213.4H277.55V192.5H284.92V213.4H291.465ZM344.489 213.4C345.369 213.4 345.589 214.665 345.589 216.7C345.589 218.735 345.369 220 344.489 220H323.479C321.444 220 319.464 219.395 317.649 218.24C315.889 219.45 313.579 220 310.609 220H291.469C290.589 220 290.369 218.735 290.369 216.7C290.369 214.665 290.589 213.4 291.469 213.4H298.784V195.25H306.154V213.4H310.609C313.909 213.4 314.624 212.52 314.624 206.25V195.25H321.994V206.25C321.994 208.67 321.774 210.705 321.334 212.465C322.269 213.235 322.819 213.4 323.479 213.4H330.574V204.765C330.574 203.335 329.969 198.44 329.144 193.6L336.404 192.5C337.064 196.46 337.944 202.565 337.944 204.765V213.4H344.489ZM362.962 192.5C372.862 192.5 377.867 196.24 377.867 206.525V220H344.482C343.602 220 343.382 218.735 343.382 216.7C343.382 214.665 343.602 213.4 344.482 213.4H351.247C351.027 211.475 350.862 209.275 350.862 206.91C350.862 201.63 351.797 196.46 352.457 193.985C354.217 193.325 358.287 192.5 362.962 192.5ZM358.672 213.4H370.497V206.525C370.497 200.365 369.177 199.1 362.962 199.1C361.532 199.1 360.102 199.21 358.837 199.375C358.452 201.85 358.232 204.655 358.232 206.91C358.232 209 358.397 211.42 358.672 213.4ZM165.819 261.005V268.485H158.449V261.005H165.819ZM176.654 261.005V268.485H169.284V261.005H176.654ZM186.059 293.4C186.939 293.4 187.159 294.665 187.159 296.7C187.159 298.735 186.939 300 186.059 300H166.259C156.634 300 153.994 295.71 153.994 286.25C153.994 276.79 156.634 272.5 166.259 272.5H179.569V293.4H186.059ZM166.259 293.4H172.199V279.1H166.259C161.914 279.1 161.364 279.375 161.364 286.25C161.364 293.125 161.914 293.4 166.259 293.4ZM225.992 293.4C226.872 293.4 227.092 294.665 227.092 296.7C227.092 298.735 226.872 300 225.992 300H186.062C185.182 300 184.962 298.735 184.962 296.7C184.962 294.665 185.182 293.4 186.062 293.4H192.827C192.607 291.475 192.442 289.275 192.442 286.91C192.442 281.63 193.377 276.46 194.037 273.985C195.797 273.325 199.867 272.5 204.542 272.5C214.442 272.5 219.447 276.24 219.447 286.525V293.4H225.992ZM200.252 293.4H212.077V286.525C212.077 280.365 210.757 279.1 204.542 279.1C203.112 279.1 201.682 279.21 200.417 279.375C200.032 281.85 199.812 284.655 199.812 286.91C199.812 289 199.977 291.42 200.252 293.4ZM239.499 272.5C248.079 272.5 254.074 277.175 254.074 284.985V300H225.969C225.089 300 224.869 298.735 224.869 296.7C224.869 294.665 225.089 293.4 225.969 293.4H246.704V284.985C246.704 281.08 244.394 279.1 239.499 279.1C237.519 279.1 235.099 279.43 230.699 279.925L229.929 273.93C233.174 273.105 236.419 272.5 239.499 272.5ZM275.43 293.4C276.31 293.4 276.53 294.665 276.53 296.7C276.53 298.735 276.31 300 275.43 300H268.885V302.31C268.885 309.075 264.76 313.585 258.82 313.585C257.885 313.585 256.73 313.475 255.74 313.365L256.565 306.82C257.72 306.93 258.38 306.985 258.82 306.985C260.415 306.985 261.515 305.555 261.515 302.31V272.5H268.885V293.4H275.43ZM283.632 261.5H291.002V300H275.437C274.557 300 274.337 298.735 274.337 296.7C274.337 294.665 274.557 293.4 275.437 293.4H283.632V261.5ZM299.776 300V261.5H307.146V300H299.776Z" fill="#0070CD"/>
<defs>
<filter id="filter0_d_1097_5034" x="35" y="29" width="406" height="406" filterUnits="userSpaceOnUse" color-interpolation-filters="sRGB">
<feFlood flood-opacity="0" result="BackgroundImageFix"/>
<feColorMatrix in="SourceAlpha" type="matrix" values="0 0 0 0 0 0 0 0 0 0 0 0 0 0 0 0 0 0 127 0" result="hardAlpha"/>
<feMorphology radius="6" operator="dilate" in="SourceAlpha" result="effect1_dropShadow_1097_5034"/>
<feOffset dy="4"/>
<feGaussianBlur stdDeviation="2"/>
<feComposite in2="hardAlpha" operator="out"/>
<feColorMatrix type="matrix" values="0 0 0 0 0 0 0 0 0 0 0 0 0 0 0 0 0 0 0.25 0"/>
<feBlend mode="normal" in2="BackgroundImageFix" result="effect1_dropShadow_1097_5034"/>
<feBlend mode="normal" in="SourceGraphic" in2="effect1_dropShadow_1097_5034" result="shape"/>
</filter>
</defs>
</svg>
